<svg width="156" height="160" viewBox="0 0 156 160" fill="none" xmlns="http://www.w3.org/2000/svg">
<path d="M156 102.851L145.337 96.3408V103.776L156 106.528V102.851Z" fill="#A50E0E"/>
<path d="M0 102.851L10.6637 96.3408V103.776L0 106.528V102.851Z" fill="#A50E0E"/>
<path d="M10.6641 40V120L78.0008 160L145.338 120V40L78.0008 0L10.6641 40Z" fill="black"/>
<path d="M53.5528 66.1896L78.0008 17.252V0L10.6641 40L53.5528 66.1896Z" fill="url(#paint0_linear_1279_1026)"/>
<path d="M109.856 96.3408L78 142.748V160L145.337 120L130.815 111.374L109.856 96.3408Z" fill="url(#paint1_linear_1279_1026)"/>
<path d="M76.8365 122.26L25.1852 111.374L10.6641 120L78.0008 160V142.748L76.8365 122.26Z" fill="url(#paint2_linear_1279_1026)"/>
<path d="M79.1505 38.468L130.815 48.6264L145.337 40L78 0V17.252L79.1505 38.468Z" fill="url(#paint3_linear_1279_1026)"/>
<path d="M55.8806 94.2248L27.3652 50.0352L10.6641 40V120L25.1852 111.374L55.8806 94.2248Z" fill="url(#paint4_linear_1279_1026)"/>
<path d="M100.12 94.2248L128.635 50.0352L145.338 40V120L130.816 111.374L100.12 94.2248Z" fill="url(#paint5_linear_1279_1026)"/>
<path d="M25.1846 48.6264V111.374L78.0002 142.748L130.815 111.374V48.6264L78.0002 17.252L25.1846 48.6264Z" fill="url(#paint6_linear_1279_1026)"/>
<path d="M50.5147 124.417H6.70776C3.00321 124.417 0 121.635 0 118.204V102.399H43.2636C47.2679 102.399 50.5147 105.406 50.5147 109.115V124.417Z" fill="url(#paint7_linear_1279_1026)"/>
<path d="M149.292 125.793H105.485V110.491C105.485 106.783 108.731 103.775 112.736 103.775H156V119.58C156 123.011 152.997 125.793 149.292 125.793Z" fill="url(#paint8_linear_1279_1026)"/>
<path d="M118.925 136.802H37.0737C35.0603 136.802 22.999 131.864 22.999 130L33.4287 109.904C33.4287 108.04 35.0612 106.528 37.0737 106.528H118.926C120.94 106.528 122.571 108.04 122.571 109.904L131.499 131C131.499 132.865 120.939 136.802 118.925 136.802Z" fill="url(#paint9_linear_1279_1026)"/>
<path d="M78.0002 143.683C91.129 143.683 101.772 133.825 101.772 121.665C101.772 109.505 91.129 99.6475 78.0002 99.6475C64.8715 99.6475 54.2285 109.505 54.2285 121.665C54.2285 133.825 64.8715 143.683 78.0002 143.683Z" fill="#F28500"/>
<path d="M78.0004 139.512C88.6429 139.512 97.2703 131.522 97.2703 121.664C97.2703 111.807 88.6429 103.816 78.0004 103.816C67.3579 103.816 58.7305 111.807 58.7305 121.664C58.7305 131.522 67.3579 139.512 78.0004 139.512Z" fill="url(#paint10_linear_1279_1026)"/>
<path d="M80.2764 63.8062H67.7368V55.4067C67.7368 52.9644 67.5978 51.4453 67.3198 50.8496C67.0617 50.234 66.4759 49.9263 65.5625 49.9263C64.5299 49.9263 63.8747 50.2936 63.5967 51.0283C63.3187 51.763 63.1797 53.3516 63.1797 55.7939V78.1924C63.1797 80.5355 63.3187 82.0645 63.5967 82.7793C63.8747 83.4941 64.5002 83.8516 65.4731 83.8516C66.4064 83.8516 67.012 83.4941 67.29 82.7793C67.5879 82.0645 67.7368 80.3866 67.7368 77.7456V71.6992H80.2764V73.5757C80.2764 78.5597 79.9189 82.0942 79.2041 84.1792C78.5091 86.2642 76.9504 88.091 74.5278 89.6597C72.1252 91.2284 69.1566 92.0127 65.6221 92.0127C61.9486 92.0127 58.9204 91.3475 56.5376 90.0171C54.1548 88.6867 52.5762 86.8499 51.8018 84.5068C51.0273 82.1439 50.6401 78.5994 50.6401 73.8735V59.7852C50.6401 56.3102 50.7593 53.709 50.9976 51.9814C51.2358 50.234 51.9408 48.5562 53.1123 46.9478C54.3037 45.3394 55.9419 44.0785 58.0269 43.165C60.1317 42.2318 62.5443 41.7651 65.2646 41.7651C68.958 41.7651 72.006 42.48 74.4087 43.9097C76.8114 45.3394 78.39 47.1265 79.1445 49.271C79.8991 51.3957 80.2764 54.7118 80.2764 59.2192V63.8062ZM102.973 42.7778V91H90.9395V65.1465C90.9395 61.4134 90.8501 59.1696 90.6714 58.415C90.4927 57.6605 89.9963 57.0946 89.1821 56.7173C88.3879 56.3201 86.6007 56.1216 83.8208 56.1216H82.6294V50.4922C88.4474 49.2412 92.8656 46.6698 95.8838 42.7778H102.973Z" fill="#F28500"/>
<path d="M131.201 57.0863L132.307 52.6602C132.449 52.0922 132.743 51.5732 133.157 51.1592C133.571 50.7452 134.09 50.4513 134.658 50.3093L139.084 49.2022C139.203 49.1722 139.203 49.0033 139.084 48.9733L134.658 47.8663C134.09 47.7243 133.571 47.4303 133.157 47.0163C132.743 46.6023 132.449 46.0833 132.307 45.5153L131.201 41.0892C131.171 40.9702 131.002 40.9702 130.972 41.0892L129.866 45.5153C129.724 46.0833 129.43 46.6023 129.016 47.0163C128.602 47.4303 128.083 47.7243 127.515 47.8663L123.089 48.9733C122.97 49.0033 122.97 49.1722 123.089 49.2022L127.515 50.3093C128.083 50.4513 128.602 50.7452 129.016 51.1592C129.43 51.5732 129.724 52.0922 129.866 52.6602L130.972 57.0863C131.002 57.2053 131.171 57.2053 131.201 57.0863Z" fill="white"/>
<path d="M25.0708 99.9503L25.7546 97.4877C25.8424 97.1717 26.0242 96.8829 26.2802 96.6526C26.5362 96.4222 26.8571 96.2586 27.2082 96.1796L29.9448 95.5637C30.0184 95.547 30.0184 95.453 29.9448 95.4363L27.2082 94.8204C26.8571 94.7414 26.5362 94.5778 26.2802 94.3474C26.0242 94.1171 25.8424 93.8283 25.7546 93.5123L25.0708 91.0497C25.0522 90.9834 24.9478 90.9834 24.9292 91.0497L24.2454 93.5123C24.1576 93.8283 23.9758 94.1171 23.7198 94.3474C23.4638 94.5778 23.1429 94.7414 22.7918 94.8204L20.0552 95.4363C19.9816 95.453 19.9816 95.547 20.0552 95.5637L22.7918 96.1796C23.1429 96.2586 23.4638 96.4222 23.7198 96.6526C23.9758 96.8829 24.1576 97.1717 24.2454 97.4877L24.9292 99.9503C24.9478 100.017 25.0522 100.017 25.0708 99.9503Z" fill="white"/>
<path d="M61.9342 34.4443L63.4092 28.5433C63.5982 27.7863 63.9903 27.0943 64.5423 26.5423C65.0943 25.9903 65.7863 25.5983 66.5433 25.4093L72.4442 23.9342C72.6032 23.8942 72.6032 23.6682 72.4442 23.6292L66.5433 22.1543C65.7863 21.9653 65.0943 21.5733 64.5423 21.0213C63.9903 20.4693 63.5982 19.7773 63.4092 19.0203L61.9342 13.1192C61.8942 12.9603 61.6682 12.9603 61.6292 13.1192L60.1543 19.0203C59.9653 19.7773 59.5733 20.4693 59.0213 21.0213C58.4693 21.5733 57.7772 21.9653 57.0202 22.1543L51.1192 23.6292C50.9603 23.6692 50.9603 23.8952 51.1192 23.9342L57.0202 25.4093C57.7772 25.5983 58.4693 25.9903 59.0213 26.5423C59.5733 27.0943 59.9653 27.7863 60.1543 28.5433L61.6292 34.4443C61.6692 34.6033 61.8952 34.6033 61.9342 34.4443Z" fill="white"/>
<path d="M75.1115 124.611C82.2318 126.438 86.8432 123.359 88.5186 121.926C88.6079 121.849 88.6744 121.753 88.7116 121.645C88.7489 121.538 88.7557 121.424 88.7313 121.313C88.5551 120.51 88.216 119.992 87.9602 119.697C87.9317 119.664 87.9162 119.624 87.9162 119.582C87.9162 119.54 87.9317 119.499 87.9602 119.467C89.0117 118.273 88.9366 117.124 88.9366 117.124C88.9806 114.015 86.795 112.583 85.9901 112.163L86.9832 111.668C87.0142 111.653 87.0401 111.63 87.0583 111.602L88.0452 110.089C88.0518 110.079 88.0549 110.067 88.0543 110.056C88.0537 110.044 88.0493 110.033 88.0417 110.024C88.0341 110.014 88.0237 110.007 88.0118 110.004C87.9999 110 87.987 109.999 87.9749 110.003L79.2819 112.163L78.6133 112.33L78.1516 112.445C78.0326 112.474 77.9072 112.474 77.7882 112.445L77.3262 112.33L76.6575 112.163L67.9622 110.002C67.9502 109.999 67.9377 110 67.9262 110.004C67.9147 110.007 67.9047 110.014 67.8974 110.024C67.8901 110.033 67.8859 110.044 67.8853 110.055C67.8846 110.066 67.8876 110.078 67.8939 110.087L68.8647 111.576C68.8937 111.62 68.9351 111.657 68.9846 111.682L69.9497 112.163C69.1461 112.582 66.9578 114.015 67.0012 117.123C67.0012 117.123 66.926 118.278 67.9837 119.473C68.0108 119.503 68.0259 119.541 68.0262 119.581C68.0265 119.62 68.0121 119.659 67.9854 119.689C67.4451 120.307 66.5207 121.929 67.5657 125.148C68.9371 129.378 74.8055 134.151 77.7766 134.946C77.9329 134.987 78.0995 134.982 78.252 134.929C78.2836 134.918 78.3108 134.898 78.3301 134.872C78.3495 134.846 78.36 134.816 78.3605 134.784C78.361 134.753 78.3513 134.722 78.3328 134.695C78.3143 134.669 78.2877 134.649 78.2564 134.636C72.5543 132.49 72.276 128.771 72.276 128.771C73.5075 131.565 76.1377 133.117 78.7181 133.979C79.0429 134.087 79.3906 134.123 79.7332 134.084C80.0758 134.046 80.4038 133.933 80.6906 133.755C81.9269 132.988 83.2745 131.936 84.5042 130.737C84.5197 130.722 84.5298 130.703 84.5331 130.682C84.5363 130.661 84.5327 130.64 84.5226 130.622C84.5125 130.603 84.4964 130.588 84.4766 130.578C84.4567 130.568 84.4341 130.564 84.4117 130.566C78.6208 131.167 74.6163 127.454 74.6163 127.454C78.9073 129.981 82.7933 129.965 85.4689 129.409C85.7028 129.36 85.9107 129.237 86.0567 129.061C87.1095 127.793 87.953 126.444 88.3741 125.148C88.6183 124.395 88.7552 123.729 88.814 123.144C88.8159 123.125 88.8119 123.107 88.8025 123.091C88.793 123.075 88.7785 123.062 88.7609 123.053C88.7433 123.045 88.7234 123.042 88.7037 123.044C88.6841 123.046 88.6656 123.054 88.6507 123.066C82.349 128.113 75.2386 124.673 75.1115 124.611ZM83.7215 113.294C84.1699 113.32 84.9212 113.49 85.3668 114.28C86.0324 115.462 85.9768 116.13 85.1821 116.455C84.3874 116.781 83.9793 116.833 83.6091 116.833C83.6091 116.833 84.7562 115.137 82.4074 114.212L82.1017 114.103L83.7215 113.294ZM72.2238 113.296L73.336 113.852L73.8551 114.111L73.5788 114.211C71.23 115.137 72.3764 116.833 72.3764 116.833C72.0066 116.833 71.6002 116.782 70.8055 116.456C70.0108 116.131 69.9548 115.463 70.6208 114.281C71.0524 113.515 71.7702 113.332 72.2231 113.297L72.2238 113.296ZM72.4836 120.223C72.4836 120.223 69.1287 120.442 68.2114 117.71C67.4222 115.362 69.6437 112.96 70.2833 112.331L71.6613 113.018C71.2262 113.01 70.5163 113.121 69.9357 113.802C69.0293 114.864 68.8429 115.909 69.362 116.628C69.8811 117.347 71.3044 118.153 73.6157 117.861C75.6443 117.606 76.0493 116.23 75.8806 115.121L77.7701 116.063C77.8314 116.094 77.8998 116.11 77.9694 116.11C78.0389 116.11 78.1074 116.094 78.1686 116.063L80.1094 115.094C79.9305 116.206 80.3269 117.602 82.3702 117.859C84.6825 118.15 86.1065 117.345 86.6239 116.626C87.1413 115.906 86.9569 114.861 86.0509 113.8C85.4474 113.092 84.704 113 84.2751 113.017L85.6561 112.329C86.2954 112.958 88.5169 115.36 87.7276 117.708C86.8104 120.44 83.4555 120.221 83.4555 120.221C83.4555 120.221 80.8802 120.171 79.7474 119.05C79.0016 118.311 79.0081 118.718 78.101 119.608C78.0841 119.624 78.0638 119.637 78.0412 119.646C78.0186 119.655 77.9943 119.66 77.9697 119.66C77.9451 119.66 77.9208 119.655 77.8982 119.646C77.8757 119.637 77.8553 119.624 77.8384 119.608C76.9314 118.718 76.9382 118.311 76.192 119.05C75.0586 120.172 72.4833 120.221 72.4833 120.221L72.4836 120.223Z" fill="url(#paint11_linear_1279_1026)" stroke="#F28500" stroke-width="0.363455" stroke-miterlimit="10"/>
<defs>
<linearGradient id="paint0_linear_1279_1026" x1="44.2611" y1="19.9189" x2="53.0448" y2="31.63" gradientUnits="userSpaceOnUse">
<stop stop-color="#FEE022"/>
<stop offset="1" stop-color="#FCC922"/>
</linearGradient>
<linearGradient id="paint1_linear_1279_1026" x1="110.608" y1="138.649" x2="104.114" y2="127.881" gradientUnits="userSpaceOnUse">
<stop stop-color="#FFE622"/>
<stop offset="1" stop-color="#FDD622"/>
</linearGradient>
<linearGradient id="paint2_linear_1279_1026" x1="43.0167" y1="141.575" x2="57.7902" y2="120.957" gradientUnits="userSpaceOnUse">
<stop stop-color="#EF940A"/>
<stop offset="1" stop-color="#EE9C10"/>
</linearGradient>
<linearGradient id="paint3_linear_1279_1026" x1="112.327" y1="19.3712" x2="101.227" y2="32.1644" gradientUnits="userSpaceOnUse">
<stop stop-color="#F38600"/>
<stop offset="1" stop-color="#EDA315"/>
</linearGradient>
<linearGradient id="paint4_linear_1279_1026" x1="10.6637" y1="80" x2="27.5541" y2="80" gradientUnits="userSpaceOnUse">
<stop stop-color="#F7C115"/>
<stop offset="1" stop-color="#F8C116"/>
</linearGradient>
<linearGradient id="paint5_linear_1279_1026" x1="145.337" y1="80" x2="128.703" y2="80" gradientUnits="userSpaceOnUse">
<stop stop-color="#F0B916"/>
<stop offset="1" stop-color="#F6BF16"/>
</linearGradient>
<linearGradient id="paint6_linear_1279_1026" x1="77.9999" y1="142.748" x2="77.9999" y2="17.2522" gradientUnits="userSpaceOnUse">
<stop stop-color="#FDE256"/>
<stop offset="1" stop-color="#FDE358"/>
</linearGradient>
<linearGradient id="paint7_linear_1279_1026" x1="0" y1="113.408" x2="50.5143" y2="113.408" gradientUnits="userSpaceOnUse">
<stop stop-color="#520001"/>
<stop offset="1" stop-color="#D33730"/>
</linearGradient>
<linearGradient id="paint8_linear_1279_1026" x1="105.486" y1="114.785" x2="156" y2="114.785" gradientUnits="userSpaceOnUse">
<stop/>
<stop offset="1" stop-color="#D33730"/>
</linearGradient>
<linearGradient id="paint9_linear_1279_1026" x1="77.9997" y1="136.802" x2="77.9997" y2="106.528" gradientUnits="userSpaceOnUse">
<stop stop-color="#9B0900"/>
<stop offset="1" stop-color="#F7726E"/>
</linearGradient>
<linearGradient id="paint10_linear_1279_1026" x1="78" y1="139.512" x2="78" y2="103.816" gradientUnits="userSpaceOnUse">
<stop stop-color="#FFE066"/>
<stop offset="1" stop-color="#FFDE32"/>
</linearGradient>
<linearGradient id="paint11_linear_1279_1026" x1="77.9689" y1="110" x2="77.9689" y2="134.973" gradientUnits="userSpaceOnUse">
<stop stop-color="#F28500"/>
<stop offset="1" stop-color="#EFA345"/>
</linearGradient>
</defs>
</svg>
