<svg width="156" height="160" viewBox="0 0 156 160" fill="none" xmlns="http://www.w3.org/2000/svg">
<g clip-path="url(#clip0_1279_964)">
<path d="M156 102.851L145.337 96.3408V103.776L156 106.528V102.851Z" fill="#A50E0E"/>
<path d="M0 102.851L10.6637 96.3408V103.776L0 106.528V102.851Z" fill="#A50E0E"/>
<path d="M10.6641 40V120L78.0008 160L145.338 120V40L78.0008 0L10.6641 40Z" fill="black"/>
<path d="M53.5528 66.1896L78.0008 17.252V0L10.6641 40L53.5528 66.1896Z" fill="url(#paint0_linear_1279_964)"/>
<path d="M109.856 96.3408L78 142.748V160L145.337 120L130.815 111.374L109.856 96.3408Z" fill="url(#paint1_linear_1279_964)"/>
<path d="M76.8365 122.26L25.1852 111.374L10.6641 120L78.0008 160V142.748L76.8365 122.26Z" fill="url(#paint2_linear_1279_964)"/>
<path d="M79.1505 38.468L130.815 48.6264L145.337 40L78 0V17.252L79.1505 38.468Z" fill="url(#paint3_linear_1279_964)"/>
<path d="M55.8806 94.2248L27.3652 50.0352L10.6641 40V120L25.1852 111.374L55.8806 94.2248Z" fill="url(#paint4_linear_1279_964)"/>
<path d="M100.12 94.2248L128.635 50.0352L145.338 40V120L130.816 111.374L100.12 94.2248Z" fill="url(#paint5_linear_1279_964)"/>
<path d="M25.1846 48.6264V111.374L78.0002 142.748L130.815 111.374V48.6264L78.0002 17.252L25.1846 48.6264Z" fill="url(#paint6_linear_1279_964)"/>
<path d="M50.5147 124.417H6.70776C3.00321 124.417 0 121.635 0 118.204V102.399H43.2636C47.2679 102.399 50.5147 105.406 50.5147 109.115V124.417Z" fill="url(#paint7_linear_1279_964)"/>
<path d="M149.292 125.793H105.485V110.491C105.485 106.783 108.731 103.775 112.736 103.775H156V119.58C156 123.011 152.997 125.793 149.292 125.793Z" fill="url(#paint8_linear_1279_964)"/>
<path d="M118.925 136.802H37.0737C35.0603 136.802 22.999 131.864 22.999 130L33.4287 109.904C33.4287 108.04 35.0612 106.528 37.0737 106.528H118.926C120.94 106.528 122.571 108.04 122.571 109.904L131.499 131C131.499 132.865 120.939 136.802 118.925 136.802Z" fill="url(#paint9_linear_1279_964)"/>
<path d="M78.0002 143.683C91.129 143.683 101.772 133.825 101.772 121.665C101.772 109.505 91.129 99.6475 78.0002 99.6475C64.8715 99.6475 54.2285 109.505 54.2285 121.665C54.2285 133.825 64.8715 143.683 78.0002 143.683Z" fill="#CA720B"/>
<path d="M78.0004 139.512C88.6429 139.512 97.2703 131.522 97.2703 121.664C97.2703 111.807 88.6429 103.816 78.0004 103.816C67.3579 103.816 58.7305 111.807 58.7305 121.664C58.7305 131.522 67.3579 139.512 78.0004 139.512Z" fill="url(#paint10_linear_1279_964)"/>
<path d="M51.5273 42.7778H64.0371C67.9886 42.7778 70.9771 43.0856 73.0024 43.7012C75.0477 44.3167 76.6958 45.5677 77.9468 47.4541C79.1978 49.3206 79.8232 52.3389 79.8232 56.5088C79.8232 59.3285 79.3765 61.2943 78.4829 62.4062C77.6092 63.5182 75.8717 64.3721 73.2705 64.9678C76.1696 65.623 78.1354 66.7152 79.168 68.2441C80.2005 69.7533 80.7168 72.0765 80.7168 75.2139V79.6816C80.7168 82.9382 80.3395 85.3507 79.585 86.9194C78.8503 88.4881 77.6688 89.5604 76.0405 90.1362C74.4123 90.7121 71.0763 91 66.0327 91H51.5273V42.7778ZM64.0669 51.0283V61.751C64.603 61.7311 65.02 61.7212 65.3179 61.7212C66.549 61.7212 67.3333 61.4233 67.6709 60.8276C68.0085 60.2121 68.1772 58.4746 68.1772 55.6152C68.1772 54.1061 68.0382 53.0537 67.7603 52.458C67.4823 51.8424 67.1149 51.4552 66.6582 51.2964C66.2214 51.1375 65.3576 51.0482 64.0669 51.0283ZM64.0669 69.2568V82.7495C65.8341 82.6899 66.9561 82.4119 67.4326 81.9155C67.929 81.4191 68.1772 80.1979 68.1772 78.252V73.7544C68.1772 71.6893 67.9588 70.4383 67.522 70.0015C67.0851 69.5646 65.9334 69.3164 64.0669 69.2568ZM103.443 42.7778V91H91.4097V65.1465C91.4097 61.4134 91.3203 59.1696 91.1416 58.415C90.9629 57.6605 90.4665 57.0946 89.6523 56.7173C88.8581 56.3201 87.071 56.1216 84.291 56.1216H83.0996V50.4922C88.9176 49.2412 93.3358 46.6698 96.354 42.7778H103.443Z" fill="#833B03"/>
<path d="M74.6193 125.811C81.7397 127.639 86.351 124.559 88.0264 123.126C88.1157 123.049 88.1822 122.953 88.2195 122.845C88.2567 122.738 88.2635 122.624 88.2391 122.513C88.0629 121.71 87.7238 121.192 87.468 120.897C87.4395 120.865 87.424 120.824 87.424 120.782C87.424 120.74 87.4395 120.7 87.468 120.667C88.5195 119.474 88.4444 118.324 88.4444 118.324C88.4884 115.215 86.3028 113.783 85.4979 113.364L86.491 112.868C86.522 112.853 86.5479 112.83 86.5661 112.802L87.5531 111.289C87.5596 111.279 87.5628 111.268 87.5621 111.256C87.5615 111.244 87.5571 111.233 87.5495 111.224C87.5419 111.214 87.5315 111.207 87.5196 111.204C87.5077 111.2 87.4948 111.2 87.4827 111.203L78.7898 113.364L78.1211 113.53L77.6594 113.645C77.5404 113.674 77.415 113.674 77.296 113.645L76.834 113.53L76.1653 113.364L67.47 111.202C67.458 111.199 67.4455 111.2 67.434 111.204C67.4225 111.208 67.4125 111.215 67.4052 111.224C67.3979 111.233 67.3937 111.244 67.3931 111.255C67.3924 111.266 67.3954 111.278 67.4017 111.287L68.3726 112.776C68.4015 112.821 68.4429 112.857 68.4924 112.882L69.4575 113.363C68.654 113.783 66.4656 115.215 66.509 118.323C66.509 118.323 66.4338 119.478 67.4915 120.673C67.5187 120.704 67.5337 120.742 67.534 120.781C67.5343 120.82 67.5199 120.859 67.4932 120.889C66.9529 121.508 66.0285 123.129 67.0735 126.348C68.445 130.578 74.3133 135.351 77.2844 136.146C77.4407 136.188 77.6073 136.182 77.7598 136.129C77.7914 136.118 77.8186 136.098 77.8379 136.072C77.8573 136.046 77.8678 136.016 77.8683 135.984C77.8688 135.953 77.8591 135.922 77.8406 135.896C77.8221 135.869 77.7955 135.849 77.7642 135.836C72.0622 133.69 71.7838 129.972 71.7838 129.972C73.0153 132.766 75.6455 134.318 78.2259 135.179C78.5507 135.287 78.8984 135.324 79.241 135.285C79.5836 135.246 79.9116 135.133 80.1985 134.955C81.4347 134.188 82.7823 133.136 84.012 131.937C84.0275 131.922 84.0376 131.903 84.0409 131.882C84.0442 131.862 84.0405 131.84 84.0304 131.822C84.0203 131.803 84.0042 131.788 83.9844 131.778C83.9645 131.768 83.9419 131.764 83.9195 131.766C78.1286 132.367 74.1241 128.655 74.1241 128.655C78.4151 131.182 82.3011 131.165 84.9768 130.609C85.2106 130.56 85.4185 130.437 85.5645 130.261C86.6173 128.993 87.4609 127.644 87.8819 126.348C88.1261 125.595 88.263 124.929 88.3218 124.344C88.3237 124.326 88.3197 124.307 88.3103 124.291C88.3008 124.275 88.2863 124.262 88.2687 124.254C88.2511 124.245 88.2312 124.242 88.2116 124.244C88.1919 124.246 88.1734 124.254 88.1585 124.266C81.8568 129.313 74.7464 125.873 74.6193 125.811ZM83.2293 114.494C83.6777 114.52 84.429 114.69 84.8747 115.48C85.5402 116.662 85.4846 117.33 84.6899 117.656C83.8952 117.981 83.4871 118.034 83.1169 118.034C83.1169 118.034 84.264 116.338 81.9152 115.413L81.6095 115.303L83.2293 114.494ZM71.7316 114.496L72.8439 115.052L73.3629 115.311L73.0867 115.412C70.7378 116.337 71.8842 118.034 71.8842 118.034C71.5144 118.034 71.108 117.982 70.3133 117.657C69.5186 117.331 69.4626 116.663 70.1286 115.481C70.5602 114.715 71.2781 114.532 71.7309 114.497L71.7316 114.496ZM71.9915 121.423C71.9915 121.423 68.6365 121.642 67.7193 118.91C66.93 116.563 69.1515 114.16 69.7912 113.531L71.1691 114.218C70.734 114.21 70.0241 114.321 69.4435 115.002C68.5372 116.064 68.3507 117.109 68.8698 117.828C69.3889 118.547 70.8123 119.353 73.1235 119.062C75.1521 118.806 75.5571 117.43 75.3884 116.321L77.2779 117.263C77.3392 117.294 77.4076 117.31 77.4772 117.31C77.5467 117.31 77.6152 117.294 77.6765 117.263L79.6172 116.294C79.4383 117.406 79.8348 118.802 81.878 119.059C84.1903 119.35 85.6143 118.545 86.1317 117.826C86.6491 117.106 86.4647 116.062 85.5587 115C84.9552 114.292 84.2118 114.2 83.7829 114.217L85.1639 113.529C85.8032 114.158 88.0247 116.56 87.2355 118.908C86.3182 121.64 82.9633 121.421 82.9633 121.421C82.9633 121.421 80.388 121.372 79.2552 120.25C78.5094 119.511 78.5159 119.918 77.6088 120.808C77.592 120.824 77.5716 120.837 77.549 120.846C77.5264 120.856 77.5021 120.86 77.4775 120.86C77.4529 120.86 77.4286 120.856 77.406 120.846C77.3835 120.837 77.3631 120.824 77.3462 120.808C76.4392 119.918 76.446 119.511 75.6998 120.25C74.5664 121.373 71.9911 121.422 71.9911 121.422L71.9915 121.423Z" fill="url(#paint11_linear_1279_964)" stroke="#CB6E00" stroke-width="0.363455" stroke-miterlimit="10"/>
<path d="M104.201 49.0863L105.307 44.6602C105.449 44.0922 105.743 43.5732 106.157 43.1592C106.571 42.7452 107.09 42.4513 107.658 42.3093L112.084 41.2022C112.203 41.1722 112.203 41.0033 112.084 40.9733L107.658 39.8663C107.09 39.7243 106.571 39.4303 106.157 39.0163C105.743 38.6023 105.449 38.0833 105.307 37.5153L104.201 33.0892C104.171 32.9702 104.002 32.9702 103.972 33.0892L102.866 37.5153C102.724 38.0833 102.43 38.6023 102.016 39.0163C101.602 39.4303 101.083 39.7243 100.515 39.8663L96.0892 40.9733C95.9702 41.0033 95.9702 41.1722 96.0892 41.2022L100.515 42.3093C101.083 42.4513 101.602 42.7452 102.016 43.1592C102.43 43.5732 102.724 44.0922 102.866 44.6602L103.972 49.0863C104.002 49.2053 104.171 49.2053 104.201 49.0863Z" fill="white"/>
<path d="M25.0708 95.9503L25.7546 93.4877C25.8424 93.1717 26.0242 92.8829 26.2802 92.6526C26.5362 92.4222 26.8571 92.2586 27.2082 92.1796L29.9448 91.5637C30.0184 91.547 30.0184 91.453 29.9448 91.4363L27.2082 90.8204C26.8571 90.7414 26.5362 90.5778 26.2802 90.3474C26.0242 90.1171 25.8424 89.8283 25.7546 89.5123L25.0708 87.0497C25.0522 86.9834 24.9478 86.9834 24.9292 87.0497L24.2454 89.5123C24.1576 89.8283 23.9758 90.1171 23.7198 90.3474C23.4638 90.5778 23.1429 90.7414 22.7918 90.8204L20.0552 91.4363C19.9816 91.453 19.9816 91.547 20.0552 91.5637L22.7918 92.1796C23.1429 92.2586 23.4638 92.4222 23.7198 92.6526C23.9758 92.8829 24.1576 93.1717 24.2454 93.4877L24.9292 95.9503C24.9478 96.0166 25.0522 96.0166 25.0708 95.9503Z" fill="white"/>
</g>
<defs>
<linearGradient id="paint0_linear_1279_964" x1="44.2611" y1="19.9189" x2="53.0448" y2="31.63" gradientUnits="userSpaceOnUse">
<stop stop-color="#E56E00"/>
<stop offset="1" stop-color="#DA8805"/>
</linearGradient>
<linearGradient id="paint1_linear_1279_964" x1="110.608" y1="138.649" x2="104.114" y2="127.881" gradientUnits="userSpaceOnUse">
<stop stop-color="#A45A25"/>
<stop offset="1" stop-color="#BA7645"/>
</linearGradient>
<linearGradient id="paint2_linear_1279_964" x1="43.0167" y1="141.575" x2="57.7902" y2="120.957" gradientUnits="userSpaceOnUse">
<stop stop-color="#D27945"/>
<stop offset="1" stop-color="#BF6827"/>
</linearGradient>
<linearGradient id="paint3_linear_1279_964" x1="112.327" y1="19.3712" x2="101.227" y2="32.1644" gradientUnits="userSpaceOnUse">
<stop stop-color="#C14700"/>
<stop offset="1" stop-color="#D38129"/>
</linearGradient>
<linearGradient id="paint4_linear_1279_964" x1="10.6637" y1="80" x2="27.5541" y2="80" gradientUnits="userSpaceOnUse">
<stop stop-color="#C84D00"/>
<stop offset="1" stop-color="#86591E"/>
</linearGradient>
<linearGradient id="paint5_linear_1279_964" x1="145.337" y1="80" x2="128.703" y2="80" gradientUnits="userSpaceOnUse">
<stop stop-color="#602500"/>
<stop offset="1" stop-color="#C27816"/>
</linearGradient>
<linearGradient id="paint6_linear_1279_964" x1="77.9999" y1="142.748" x2="77.9999" y2="17.2522" gradientUnits="userSpaceOnUse">
<stop stop-color="#EE6E00"/>
<stop offset="1" stop-color="#93541A"/>
</linearGradient>
<linearGradient id="paint7_linear_1279_964" x1="0" y1="113.408" x2="50.5143" y2="113.408" gradientUnits="userSpaceOnUse">
<stop stop-color="#BE4244"/>
<stop offset="1" stop-color="#D33730"/>
</linearGradient>
<linearGradient id="paint8_linear_1279_964" x1="105.486" y1="114.785" x2="156" y2="114.785" gradientUnits="userSpaceOnUse">
<stop stop-color="#BE4244"/>
<stop offset="1" stop-color="#D33730"/>
</linearGradient>
<linearGradient id="paint9_linear_1279_964" x1="77.9997" y1="136.802" x2="77.9997" y2="106.528" gradientUnits="userSpaceOnUse">
<stop stop-color="#FF544A"/>
<stop offset="1" stop-color="#F7726E"/>
</linearGradient>
<linearGradient id="paint10_linear_1279_964" x1="78" y1="139.512" x2="78" y2="103.816" gradientUnits="userSpaceOnUse">
<stop stop-color="#B15100"/>
<stop offset="1" stop-color="#DB9F20"/>
</linearGradient>
<linearGradient id="paint11_linear_1279_964" x1="77.4767" y1="111.2" x2="77.4767" y2="136.173" gradientUnits="userSpaceOnUse">
<stop stop-color="#4B2B00"/>
<stop offset="1" stop-color="#7D3A0A"/>
</linearGradient>
<clipPath id="clip0_1279_964">
<rect width="156" height="160" fill="white"/>
</clipPath>
</defs>
</svg>
