<svg width="70" height="86" viewBox="0 0 70 86" fill="none" xmlns="http://www.w3.org/2000/svg">
<g clip-path="url(#clip0_923_165)">
<path d="M25.897 50.3036C48.5783 56.5899 63.2674 45.9993 68.6043 41.0695C68.8888 40.8063 69.1006 40.4743 69.2193 40.1054C69.338 39.7365 69.3596 39.3432 69.282 38.9635C68.7207 36.2006 67.6405 34.4199 66.8257 33.405C66.7349 33.293 66.6853 33.1532 66.6853 33.009C66.6853 32.8648 66.7349 32.725 66.8257 32.613C70.1751 28.5088 69.9358 24.5548 69.9358 24.5548C70.0761 13.864 63.114 8.93857 60.55 7.49509L63.7134 5.79162C63.8121 5.73868 63.8948 5.66015 63.9527 5.56427L67.0965 0.360326C67.1174 0.326076 67.1274 0.286363 67.1254 0.246331C67.1234 0.206298 67.1094 0.167791 67.0853 0.135795C67.0612 0.103799 67.028 0.0797901 66.99 0.0668758C66.9521 0.0539614 66.9111 0.052737 66.8725 0.0633619L39.1816 7.49509L37.0516 8.06726L35.5809 8.46212C35.2018 8.56435 34.8025 8.56435 34.4234 8.46212L32.9516 8.06726L30.8216 7.49509L3.12316 0.0600987C3.08517 0.0510552 3.04535 0.0533857 3.00867 0.0668011C2.97199 0.0802164 2.94007 0.104124 2.91688 0.135546C2.89369 0.166968 2.88026 0.204518 2.87825 0.243519C2.87624 0.28252 2.88575 0.321251 2.90559 0.354888L5.99831 5.47399C6.0906 5.6275 6.22248 5.75337 6.38014 5.83839L9.45436 7.49291C6.89468 8.9364 -0.0761629 13.8619 0.0619921 24.5526C0.0619921 24.5526 -0.177331 28.523 3.19169 32.6348C3.27828 32.739 3.32613 32.8699 3.32712 33.0053C3.32811 33.1407 3.28218 33.2724 3.19713 33.3778C1.47618 35.5044 -1.46859 41.0814 1.86018 52.1529C6.22893 66.6987 24.9223 83.1144 34.3864 85.8491C34.8844 85.9919 35.415 85.9717 35.9007 85.7914C36.0014 85.752 36.0881 85.6835 36.1496 85.5947C36.2112 85.5058 36.2449 85.4006 36.2464 85.2925C36.248 85.1844 36.2172 85.0783 36.1582 84.9878C36.0991 84.8972 36.0144 84.8263 35.9149 84.7841C17.7513 77.4014 16.8647 64.6134 16.8647 64.6134C20.7874 74.2229 29.1659 79.5606 37.3856 82.5226C38.4201 82.8954 39.5276 83.0199 40.619 82.8861C41.7104 82.7524 42.7551 82.364 43.6689 81.7525C47.6069 79.1157 51.8995 75.4967 55.8168 71.374C55.8661 71.3217 55.8982 71.2556 55.9087 71.1845C55.9192 71.1134 55.9075 71.0408 55.8754 70.9766C55.8432 70.9123 55.792 70.8595 55.7288 70.8253C55.6656 70.7911 55.5934 70.7772 55.522 70.7855C37.0756 72.8523 24.3196 60.0839 24.3196 60.0839C37.9883 68.7753 50.3667 68.7176 58.8899 66.8064C59.6347 66.6388 60.2972 66.2154 60.7621 65.6098C64.1159 61.2478 66.8028 56.6095 68.1441 52.1507C68.9219 49.5618 69.3582 47.272 69.5453 45.2585C69.5515 45.1958 69.5387 45.1326 69.5086 45.0772C69.4785 45.0218 69.4324 44.9767 69.3763 44.9479C69.3202 44.919 69.2568 44.9077 69.1942 44.9154C69.1316 44.923 69.0727 44.9494 69.0253 44.9909C48.9515 62.3497 26.3017 50.519 25.897 50.3036ZM53.3235 11.3839C54.7518 11.472 57.145 12.0572 58.5647 14.7745C60.6849 18.8396 60.5075 21.138 57.9762 22.2563C55.4448 23.3745 54.1448 23.5562 52.9656 23.5562C52.9656 23.5562 56.6196 17.7235 49.1375 14.5417L48.1639 14.1643L53.3235 11.3839ZM16.6983 11.3904L20.2413 13.3027L21.8948 14.1936L21.0148 14.5385C13.5327 17.7202 17.1845 23.5562 17.1845 23.5562C16.0064 23.5562 14.7119 23.3789 12.1805 22.2595C9.64908 21.1402 9.47068 18.8428 11.592 14.7778C12.967 12.1443 15.2536 11.5144 16.6961 11.3937L16.6983 11.3904ZM17.5261 35.2128C17.5261 35.2128 6.8392 35.9678 3.91728 26.5715C1.40329 18.4969 8.47966 10.2341 10.5172 8.07161L14.9066 10.4343C13.5207 10.406 11.2591 10.7889 9.40976 13.1298C6.52264 16.7815 5.92868 20.3766 7.58219 22.8491C9.2357 25.3216 13.7698 28.0933 21.1323 27.0915C27.594 26.2125 28.8842 21.4807 28.3468 17.6669L34.3658 20.9074C34.5609 21.0124 34.779 21.0673 35.0005 21.0673C35.2221 21.0673 35.4402 21.0124 35.6353 20.9074L41.8174 17.5734C41.2474 21.3991 42.5104 26.1984 49.0189 27.0839C56.3846 28.0846 60.9209 25.3162 62.569 22.8415C64.2171 20.3668 63.6296 16.7739 60.7436 13.1222C58.8214 10.6877 56.4532 10.3734 55.0869 10.431L59.4861 8.064C61.5225 10.2265 68.5989 18.4893 66.0849 26.5639C63.1629 35.9602 52.4761 35.2052 52.4761 35.2052C52.4761 35.2052 44.2727 35.0366 40.6643 31.1804C38.2885 28.6383 38.3092 30.0372 35.4199 33.0971C35.3661 33.154 35.3013 33.1994 35.2293 33.2304C35.1574 33.2613 35.0799 33.2773 35.0016 33.2773C34.9233 33.2773 34.8458 33.2613 34.7739 33.2304C34.702 33.1994 34.6371 33.154 34.5833 33.0971C31.6941 30.0372 31.7158 28.6372 29.3389 31.1804C25.7284 35.0399 17.525 35.2085 17.525 35.2085L17.5261 35.2128Z" fill="black" stroke="black" stroke-miterlimit="10"/>
<path d="M50.9999 17.731C51.5869 17.731 52.0627 17.2552 52.0627 16.6682C52.0627 16.0813 51.5869 15.6055 50.9999 15.6055C50.4129 15.6055 49.9371 16.0813 49.9371 16.6682C49.9371 17.2552 50.4129 17.731 50.9999 17.731Z" fill="white"/>
<path d="M19.1122 17.7173C19.6992 17.7173 20.175 17.2415 20.175 16.6546C20.175 16.0676 19.6992 15.5918 19.1122 15.5918C18.5252 15.5918 18.0494 16.0676 18.0494 16.6546C18.0494 17.2415 18.5252 17.7173 19.1122 17.7173Z" fill="white"/>
</g>
<defs>
<clipPath id="clip0_923_165">
<rect width="70" height="86" fill="white"/>
</clipPath>
</defs>
</svg>
