<svg width="56" height="104" viewBox="0 0 56 104" fill="none" xmlns="http://www.w3.org/2000/svg">
<path d="M19.795 73.71C18.2483 73.71 17.1367 73.42 16.46 72.84C15.7833 72.1633 15.445 71.3417 15.445 70.375C15.445 67.0883 16.5083 63.415 18.635 59.355C20.8583 55.295 23.9517 51.2833 27.915 47.32C31.5883 43.6467 34.7783 40.1667 37.485 36.88C40.2883 33.4967 41.69 30.0167 41.69 26.44C41.69 21.3167 40.1433 17.5467 37.05 15.13C33.9567 12.6167 29.4133 11.36 23.42 11.36C20.4233 11.36 17.6683 11.795 15.155 12.665C12.7383 13.4383 10.7083 14.26 9.065 15.13C7.42167 15.9033 6.21333 16.29 5.44 16.29C4.95667 16.29 4.32833 15.8067 3.555 14.84C2.87833 13.8733 2.25 12.81 1.67 11.65C1.09 10.49 0.8 9.57166 0.8 8.89499C0.8 7.63833 1.57333 6.52666 3.12 5.55999C4.76333 4.49666 6.84167 3.62666 9.355 2.94999C11.8683 2.17666 14.575 1.59666 17.475 1.21C20.375 0.823329 23.13 0.629996 25.74 0.629996C32.2167 0.629996 37.63 1.74166 41.98 3.965C46.4267 6.18833 49.7617 9.18499 51.985 12.955C54.305 16.6283 55.465 20.64 55.465 24.99C55.465 28.2767 54.7883 31.37 53.435 34.27C52.1783 37.0733 50.4867 39.7317 48.36 42.245C46.33 44.6617 44.1067 47.03 41.69 49.35C38.3067 52.6367 35.1167 56.02 32.12 59.5C29.22 62.8833 27.4317 66.6533 26.755 70.81C26.6583 71.7767 26.2717 72.5017 25.595 72.985C24.9183 73.4683 23.71 73.71 21.97 73.71H19.795ZM19.36 103.29C15.4933 103.29 13.56 102.227 13.56 100.1V90.53C13.56 88.4033 15.4933 87.34 19.36 87.34H21.825C25.6917 87.34 27.625 88.4033 27.625 90.53V100.1C27.625 102.227 25.6917 103.29 21.825 103.29H19.36Z" fill="url(#paint0_linear_1778_701)"/>
<defs>
<linearGradient id="paint0_linear_1778_701" x1="27.5" y1="-32" x2="27.5" y2="134" gradientUnits="userSpaceOnUse">
<stop stop-color="#E29578"/>
<stop offset="0.447917" stop-color="#B7AB97"/>
<stop offset="1" stop-color="#83C5BE"/>
</linearGradient>
</defs>
</svg>
