<svg width="21" height="23" viewBox="0 0 21 23" fill="none" xmlns="http://www.w3.org/2000/svg">
<path d="M20 10.8448L11.0172 20.2084C9.91678 21.3556 8.42424 22 6.86796 22C5.31168 22 3.81914 21.3556 2.71869 20.2084C1.61823 19.0613 1 17.5055 1 15.8832C1 14.261 1.61823 12.7051 2.71869 11.558L11.7015 2.19437C12.4351 1.42963 13.4301 1 14.4676 1C15.5052 1 16.5002 1.42963 17.2338 2.19437C17.9675 2.95912 18.3796 3.99633 18.3796 5.07785C18.3796 6.15936 17.9675 7.19658 17.2338 7.96132L8.24128 17.325C7.87446 17.7073 7.37695 17.9222 6.85819 17.9222C6.33943 17.9222 5.84191 17.7073 5.47509 17.325C5.10828 16.9426 4.9022 16.424 4.9022 15.8832C4.9022 15.3425 5.10828 14.8239 5.47509 14.4415L13.7736 5.80126" stroke="#001A72" stroke-width="1.5" stroke-linecap="round" stroke-linejoin="round"/>
</svg>
