<svg width="156" height="160" viewBox="0 0 156 160" fill="none" xmlns="http://www.w3.org/2000/svg">
<g clip-path="url(#clip0_1279_1004)">
<path d="M156 102.851L145.337 96.3408V103.776L156 106.528V102.851Z" fill="#A50E0E"/>
<path d="M0 102.851L10.6637 96.3408V103.776L0 106.528V102.851Z" fill="#A50E0E"/>
<path d="M10.6641 40V120L78.0008 160L145.338 120V40L78.0008 0L10.6641 40Z" fill="black"/>
<path d="M53.5528 66.1896L78.0008 17.252V0L10.6641 40L53.5528 66.1896Z" fill="url(#paint0_linear_1279_1004)"/>
<path d="M109.856 96.3408L78 142.748V160L145.337 120L130.815 111.374L109.856 96.3408Z" fill="url(#paint1_linear_1279_1004)"/>
<path d="M76.8365 122.26L25.1852 111.374L10.6641 120L78.0008 160V142.748L76.8365 122.26Z" fill="url(#paint2_linear_1279_1004)"/>
<path d="M79.1505 38.468L130.815 48.6264L145.337 40L78 0V17.252L79.1505 38.468Z" fill="url(#paint3_linear_1279_1004)"/>
<path d="M55.8806 94.2248L27.3652 50.0352L10.6641 40V120L25.1852 111.374L55.8806 94.2248Z" fill="url(#paint4_linear_1279_1004)"/>
<path d="M100.12 94.2248L128.635 50.0352L145.338 40V120L130.816 111.374L100.12 94.2248Z" fill="url(#paint5_linear_1279_1004)"/>
<path d="M25.1846 48.6264V111.374L78.0002 142.748L130.815 111.374V48.6264L78.0002 17.252L25.1846 48.6264Z" fill="url(#paint6_linear_1279_1004)"/>
<path d="M50.5147 124.417H6.70776C3.00321 124.417 0 121.635 0 118.204V102.399H43.2636C47.2679 102.399 50.5147 105.406 50.5147 109.115V124.417Z" fill="url(#paint7_linear_1279_1004)"/>
<path d="M149.292 125.793H105.485V110.491C105.485 106.783 108.731 103.775 112.736 103.775H156V119.58C156 123.011 152.997 125.793 149.292 125.793Z" fill="url(#paint8_linear_1279_1004)"/>
<path d="M118.925 136.802H37.0737C35.0603 136.802 22.999 131.864 22.999 130L33.4287 109.904C33.4287 108.04 35.0612 106.528 37.0737 106.528H118.926C120.94 106.528 122.571 108.04 122.571 109.904L131.499 131C131.499 132.865 120.939 136.802 118.925 136.802Z" fill="url(#paint9_linear_1279_1004)"/>
<path d="M78.0002 143.683C91.129 143.683 101.772 133.825 101.772 121.665C101.772 109.505 91.129 99.6475 78.0002 99.6475C64.8715 99.6475 54.2285 109.505 54.2285 121.665C54.2285 133.825 64.8715 143.683 78.0002 143.683Z" fill="#777777"/>
<path d="M78.0004 139.512C88.6429 139.512 97.2703 131.522 97.2703 121.664C97.2703 111.807 88.6429 103.816 78.0004 103.816C67.3579 103.816 58.7305 111.807 58.7305 121.664C58.7305 131.522 67.3579 139.512 78.0004 139.512Z" fill="url(#paint10_linear_1279_1004)"/>
<path d="M47.834 42.7778H60.3438C64.2952 42.7778 67.2837 43.0856 69.3091 43.7012C71.3543 44.3167 73.0024 45.5677 74.2534 47.4541C75.5044 49.3206 76.1299 52.3389 76.1299 56.5088C76.1299 59.3285 75.6831 61.2943 74.7896 62.4062C73.9159 63.5182 72.1784 64.3721 69.5771 64.9678C72.4762 65.623 74.4421 66.7152 75.4746 68.2441C76.5072 69.7533 77.0234 72.0765 77.0234 75.2139V79.6816C77.0234 82.9382 76.6462 85.3507 75.8916 86.9194C75.1569 88.4881 73.9754 89.5604 72.3472 90.1362C70.7189 90.7121 67.383 91 62.3394 91H47.834V42.7778ZM60.3735 51.0283V61.751C60.9097 61.7311 61.3267 61.7212 61.6245 61.7212C62.8556 61.7212 63.64 61.4233 63.9775 60.8276C64.3151 60.2121 64.4839 58.4746 64.4839 55.6152C64.4839 54.1061 64.3449 53.0537 64.0669 52.458C63.7889 51.8424 63.4215 51.4552 62.9648 51.2964C62.528 51.1375 61.6642 51.0482 60.3735 51.0283ZM60.3735 69.2568V82.7495C62.1408 82.6899 63.2627 82.4119 63.7393 81.9155C64.2357 81.4191 64.4839 80.1979 64.4839 78.252V73.7544C64.4839 71.6893 64.2655 70.4383 63.8286 70.0015C63.3918 69.5646 62.2401 69.3164 60.3735 69.2568ZM107.136 82.7793V91H80.6572V84.1196C88.5007 71.2922 93.1571 63.3594 94.6265 60.3213C96.1157 57.2633 96.8604 54.8805 96.8604 53.1729C96.8604 51.8623 96.632 50.8893 96.1753 50.2539C95.7384 49.5986 95.0633 49.271 94.1499 49.271C93.2365 49.271 92.5514 49.6284 92.0947 50.3433C91.6579 51.0581 91.4395 52.4779 91.4395 54.6025V59.1895H80.6572V57.4321C80.6572 54.7316 80.7962 52.6069 81.0742 51.0581C81.3522 49.4894 82.0373 47.9505 83.1294 46.4414C84.2215 44.9323 85.6413 43.7905 87.3887 43.0161C89.1361 42.2417 91.231 41.8545 93.6733 41.8545C98.4588 41.8545 102.073 43.0459 104.515 45.4287C106.977 47.7917 108.208 50.79 108.208 54.4238C108.208 57.1839 107.514 60.1029 106.124 63.1807C104.753 66.2585 100.693 72.7913 93.9414 82.7793H107.136Z" fill="#919191"/>
<path d="M74.6193 125.811C81.7397 127.639 86.351 124.559 88.0264 123.126C88.1157 123.049 88.1822 122.953 88.2195 122.845C88.2567 122.738 88.2635 122.624 88.2391 122.513C88.0629 121.71 87.7238 121.192 87.468 120.897C87.4395 120.865 87.424 120.824 87.424 120.782C87.424 120.74 87.4395 120.7 87.468 120.667C88.5195 119.474 88.4444 118.324 88.4444 118.324C88.4884 115.215 86.3028 113.783 85.4979 113.364L86.491 112.868C86.522 112.853 86.5479 112.83 86.5661 112.802L87.5531 111.289C87.5596 111.279 87.5628 111.268 87.5621 111.256C87.5615 111.244 87.5571 111.233 87.5495 111.224C87.5419 111.214 87.5315 111.207 87.5196 111.204C87.5077 111.2 87.4948 111.2 87.4827 111.203L78.7898 113.364L78.1211 113.53L77.6594 113.645C77.5404 113.674 77.415 113.674 77.296 113.645L76.834 113.53L76.1653 113.364L67.47 111.202C67.458 111.199 67.4455 111.2 67.434 111.204C67.4225 111.208 67.4125 111.215 67.4052 111.224C67.3979 111.233 67.3937 111.244 67.3931 111.255C67.3924 111.266 67.3954 111.278 67.4017 111.287L68.3726 112.776C68.4015 112.821 68.4429 112.857 68.4924 112.882L69.4575 113.363C68.654 113.783 66.4656 115.215 66.509 118.323C66.509 118.323 66.4338 119.478 67.4915 120.673C67.5187 120.704 67.5337 120.742 67.534 120.781C67.5343 120.82 67.5199 120.859 67.4932 120.889C66.9529 121.508 66.0285 123.129 67.0735 126.348C68.445 130.578 74.3133 135.351 77.2844 136.146C77.4407 136.188 77.6073 136.182 77.7598 136.129C77.7914 136.118 77.8186 136.098 77.8379 136.072C77.8573 136.046 77.8678 136.016 77.8683 135.984C77.8688 135.953 77.8591 135.922 77.8406 135.896C77.8221 135.869 77.7955 135.849 77.7642 135.836C72.0622 133.69 71.7838 129.972 71.7838 129.972C73.0153 132.766 75.6455 134.318 78.2259 135.179C78.5507 135.287 78.8984 135.324 79.241 135.285C79.5836 135.246 79.9116 135.133 80.1985 134.955C81.4347 134.188 82.7823 133.136 84.012 131.937C84.0275 131.922 84.0376 131.903 84.0409 131.882C84.0442 131.862 84.0405 131.84 84.0304 131.822C84.0203 131.803 84.0042 131.788 83.9844 131.778C83.9645 131.768 83.9419 131.764 83.9195 131.766C78.1286 132.367 74.1241 128.655 74.1241 128.655C78.4151 131.182 82.3011 131.165 84.9768 130.609C85.2106 130.56 85.4185 130.437 85.5645 130.261C86.6173 128.993 87.4609 127.644 87.8819 126.348C88.1261 125.595 88.263 124.929 88.3218 124.344C88.3237 124.326 88.3197 124.307 88.3103 124.291C88.3008 124.275 88.2863 124.262 88.2687 124.254C88.2511 124.245 88.2312 124.242 88.2116 124.244C88.1919 124.246 88.1734 124.254 88.1585 124.266C81.8568 129.313 74.7464 125.873 74.6193 125.811ZM83.2293 114.494C83.6777 114.52 84.429 114.69 84.8747 115.48C85.5402 116.662 85.4846 117.33 84.6899 117.656C83.8952 117.981 83.4871 118.034 83.1169 118.034C83.1169 118.034 84.264 116.338 81.9152 115.413L81.6095 115.303L83.2293 114.494ZM71.7316 114.496L72.8439 115.052L73.3629 115.311L73.0867 115.412C70.7378 116.337 71.8842 118.034 71.8842 118.034C71.5144 118.034 71.108 117.982 70.3133 117.657C69.5186 117.331 69.4626 116.663 70.1286 115.481C70.5602 114.715 71.2781 114.532 71.7309 114.497L71.7316 114.496ZM71.9915 121.423C71.9915 121.423 68.6365 121.642 67.7193 118.91C66.93 116.563 69.1515 114.16 69.7912 113.531L71.1691 114.218C70.734 114.21 70.0241 114.321 69.4435 115.002C68.5372 116.064 68.3507 117.109 68.8698 117.828C69.3889 118.547 70.8123 119.353 73.1235 119.062C75.1521 118.806 75.5571 117.43 75.3884 116.321L77.2779 117.263C77.3392 117.294 77.4076 117.31 77.4772 117.31C77.5467 117.31 77.6152 117.294 77.6765 117.263L79.6172 116.294C79.4383 117.406 79.8348 118.802 81.878 119.059C84.1903 119.35 85.6143 118.545 86.1317 117.826C86.6491 117.106 86.4647 116.062 85.5587 115C84.9552 114.292 84.2118 114.2 83.7829 114.217L85.1639 113.529C85.8032 114.158 88.0247 116.56 87.2355 118.908C86.3182 121.64 82.9633 121.421 82.9633 121.421C82.9633 121.421 80.388 121.372 79.2552 120.25C78.5094 119.511 78.5159 119.918 77.6088 120.808C77.592 120.824 77.5716 120.837 77.549 120.846C77.5264 120.856 77.5021 120.86 77.4775 120.86C77.4529 120.86 77.4286 120.856 77.406 120.846C77.3835 120.837 77.3631 120.824 77.3462 120.808C76.4392 119.918 76.446 119.511 75.6998 120.25C74.5664 121.373 71.9911 121.422 71.9911 121.422L71.9915 121.423Z" fill="url(#paint11_linear_1279_1004)" stroke="#777777" stroke-width="0.363455" stroke-miterlimit="10"/>
<path d="M35.9342 51.4443L37.4092 45.5433C37.5982 44.7863 37.9903 44.0943 38.5423 43.5423C39.0943 42.9903 39.7863 42.5983 40.5433 42.4093L46.4442 40.9342C46.6032 40.8942 46.6032 40.6682 46.4442 40.6292L40.5433 39.1543C39.7863 38.9653 39.0943 38.5733 38.5423 38.0213C37.9903 37.4693 37.5982 36.7773 37.4092 36.0203L35.9342 30.1192C35.8942 29.9603 35.6682 29.9603 35.6292 30.1192L34.1543 36.0203C33.9653 36.7773 33.5733 37.4693 33.0213 38.0213C32.4693 38.5733 31.7772 38.9653 31.0202 39.1543L25.1192 40.6292C24.9603 40.6692 24.9603 40.8952 25.1192 40.9342L31.0202 42.4093C31.7772 42.5983 32.4693 42.9903 33.0213 43.5423C33.5733 44.0943 33.9653 44.7863 34.1543 45.5433L35.6292 51.4443C35.6692 51.6033 35.8952 51.6033 35.9342 51.4443Z" fill="white"/>
<path d="M131.201 75.0863L132.307 70.6602C132.449 70.0922 132.743 69.5732 133.157 69.1592C133.571 68.7452 134.09 68.4513 134.658 68.3093L139.084 67.2022C139.203 67.1722 139.203 67.0033 139.084 66.9733L134.658 65.8663C134.09 65.7243 133.571 65.4303 133.157 65.0163C132.743 64.6023 132.449 64.0833 132.307 63.5153L131.201 59.0892C131.171 58.9702 131.002 58.9702 130.972 59.0892L129.866 63.5153C129.724 64.0833 129.43 64.6023 129.016 65.0163C128.602 65.4303 128.083 65.7243 127.515 65.8663L123.089 66.9733C122.97 67.0033 122.97 67.1722 123.089 67.2022L127.515 68.3093C128.083 68.4513 128.602 68.7452 129.016 69.1592C129.43 69.5732 129.724 70.0922 129.866 70.6602L130.972 75.0863C131.002 75.2053 131.171 75.2053 131.201 75.0863Z" fill="white"/>
<path d="M47.0708 95.9503L47.7546 93.4877C47.8424 93.1717 48.0242 92.8829 48.2802 92.6526C48.5362 92.4222 48.8571 92.2586 49.2082 92.1796L51.9448 91.5637C52.0184 91.547 52.0184 91.453 51.9448 91.4363L49.2082 90.8204C48.8571 90.7414 48.5362 90.5778 48.2802 90.3474C48.0242 90.1171 47.8424 89.8283 47.7546 89.5123L47.0708 87.0497C47.0522 86.9834 46.9478 86.9834 46.9292 87.0497L46.2454 89.5123C46.1576 89.8283 45.9758 90.1171 45.7198 90.3474C45.4638 90.5778 45.1429 90.7414 44.7918 90.8204L42.0552 91.4363C41.9816 91.453 41.9816 91.547 42.0552 91.5637L44.7918 92.1796C45.1429 92.2586 45.4638 92.4222 45.7198 92.6526C45.9758 92.8829 46.1576 93.1717 46.2454 93.4877L46.9292 95.9503C46.9478 96.0166 47.0522 96.0166 47.0708 95.9503Z" fill="white"/>
</g>
<defs>
<linearGradient id="paint0_linear_1279_1004" x1="44.2611" y1="19.9189" x2="53.0448" y2="31.63" gradientUnits="userSpaceOnUse">
<stop stop-color="#C3C3C3"/>
<stop offset="1" stop-color="#CECECE"/>
</linearGradient>
<linearGradient id="paint1_linear_1279_1004" x1="110.608" y1="138.649" x2="104.114" y2="127.881" gradientUnits="userSpaceOnUse">
<stop stop-color="#ABABAB"/>
<stop offset="1" stop-color="#DADADA"/>
</linearGradient>
<linearGradient id="paint2_linear_1279_1004" x1="43.0167" y1="141.575" x2="57.7902" y2="120.957" gradientUnits="userSpaceOnUse">
<stop stop-color="#E3E3E3"/>
<stop offset="1" stop-color="#DDDDDD"/>
</linearGradient>
<linearGradient id="paint3_linear_1279_1004" x1="112.327" y1="19.3712" x2="101.227" y2="32.1644" gradientUnits="userSpaceOnUse">
<stop stop-color="white"/>
<stop offset="1" stop-color="#BABABA"/>
</linearGradient>
<linearGradient id="paint4_linear_1279_1004" x1="10.6637" y1="80" x2="27.5541" y2="80" gradientUnits="userSpaceOnUse">
<stop stop-color="#F2F2F2"/>
<stop offset="1" stop-color="#BEBDBC"/>
</linearGradient>
<linearGradient id="paint5_linear_1279_1004" x1="145.337" y1="80" x2="128.703" y2="80" gradientUnits="userSpaceOnUse">
<stop stop-color="#A3A3A3"/>
<stop offset="1" stop-color="#DEDEDE"/>
</linearGradient>
<linearGradient id="paint6_linear_1279_1004" x1="77.9999" y1="142.748" x2="77.9999" y2="17.2522" gradientUnits="userSpaceOnUse">
<stop stop-color="#A6A6A6"/>
<stop offset="1" stop-color="#F0F0F0"/>
</linearGradient>
<linearGradient id="paint7_linear_1279_1004" x1="0" y1="113.408" x2="50.5143" y2="113.408" gradientUnits="userSpaceOnUse">
<stop stop-color="#520001"/>
<stop offset="1" stop-color="#D33730"/>
</linearGradient>
<linearGradient id="paint8_linear_1279_1004" x1="105.486" y1="114.785" x2="156" y2="114.785" gradientUnits="userSpaceOnUse">
<stop/>
<stop offset="1" stop-color="#D33730"/>
</linearGradient>
<linearGradient id="paint9_linear_1279_1004" x1="77.9997" y1="136.802" x2="77.9997" y2="106.528" gradientUnits="userSpaceOnUse">
<stop stop-color="#9B0900"/>
<stop offset="1" stop-color="#F7726E"/>
</linearGradient>
<linearGradient id="paint10_linear_1279_1004" x1="78" y1="139.512" x2="78" y2="103.816" gradientUnits="userSpaceOnUse">
<stop stop-color="#D5D5D5"/>
<stop offset="1" stop-color="#9A9A9A"/>
</linearGradient>
<linearGradient id="paint11_linear_1279_1004" x1="77.4767" y1="111.2" x2="77.4767" y2="136.173" gradientUnits="userSpaceOnUse">
<stop stop-color="#BCBCBC"/>
<stop offset="1" stop-color="#717171"/>
</linearGradient>
<clipPath id="clip0_1279_1004">
<rect width="156" height="160" fill="white"/>
</clipPath>
</defs>
</svg>
