<svg width="156" height="160" viewBox="0 0 156 160" fill="none" xmlns="http://www.w3.org/2000/svg">
<path d="M156 102.851L145.337 96.3408V103.776L156 106.528V102.851Z" fill="#5D0D71"/>
<path d="M0 102.851L10.6637 96.3408V103.776L0 106.528V102.851Z" fill="#2A0437"/>
<path d="M10.6641 40V120L78.0008 160L145.338 120V40L78.0008 0L10.6641 40Z" fill="black"/>
<path d="M53.5528 66.1896L78.0008 17.252V0L10.6641 40L53.5528 66.1896Z" fill="url(#paint0_linear_1279_1048)"/>
<path d="M109.856 96.3408L78 142.748V160L145.337 120L130.815 111.374L109.856 96.3408Z" fill="url(#paint1_linear_1279_1048)"/>
<path d="M76.8365 122.26L25.1852 111.374L10.6641 120L78.0008 160V142.748L76.8365 122.26Z" fill="url(#paint2_linear_1279_1048)"/>
<path d="M79.1505 38.468L130.815 48.6264L145.337 40L78 0V17.252L79.1505 38.468Z" fill="url(#paint3_linear_1279_1048)"/>
<path d="M55.8806 94.2248L27.3652 50.0352L10.6641 40V120L25.1852 111.374L55.8806 94.2248Z" fill="url(#paint4_linear_1279_1048)"/>
<path d="M100.12 94.2248L128.635 50.0352L145.338 40V120L130.816 111.374L100.12 94.2248Z" fill="url(#paint5_linear_1279_1048)"/>
<path d="M25.1846 48.6264V111.374L78.0002 142.748L130.815 111.374V48.6264L78.0002 17.252L25.1846 48.6264Z" fill="url(#paint6_linear_1279_1048)"/>
<path d="M50.5147 124.417H6.70776C3.00321 124.417 0 121.635 0 118.204V102.399H43.2636C47.2679 102.399 50.5147 105.406 50.5147 109.115V124.417Z" fill="url(#paint7_linear_1279_1048)"/>
<path d="M149.292 125.793H105.485V110.491C105.485 106.783 108.731 103.775 112.736 103.775H156V119.58C156 123.011 152.997 125.793 149.292 125.793Z" fill="url(#paint8_linear_1279_1048)"/>
<path d="M118.925 136.802H37.0737C35.0603 136.802 22.999 131.864 22.999 130L33.4287 109.904C33.4287 108.04 35.0612 106.528 37.0737 106.528H118.926C120.94 106.528 122.571 108.04 122.571 109.904L131.499 131C131.499 132.865 120.939 136.802 118.925 136.802Z" fill="url(#paint9_linear_1279_1048)"/>
<path d="M78.0002 143.683C91.129 143.683 101.772 133.825 101.772 121.665C101.772 109.505 91.129 99.6475 78.0002 99.6475C64.8715 99.6475 54.2285 109.505 54.2285 121.665C54.2285 133.825 64.8715 143.683 78.0002 143.683Z" fill="#68A1D5"/>
<path d="M78.0004 139.512C88.6429 139.512 97.2703 131.522 97.2703 121.664C97.2703 111.807 88.6429 103.816 78.0004 103.816C67.3579 103.816 58.7305 111.807 58.7305 121.664C58.7305 131.522 67.3579 139.512 78.0004 139.512Z" fill="url(#paint10_linear_1279_1048)"/>
<path d="M77.083 63.8062H64.5435V55.4067C64.5435 52.9644 64.4045 51.4453 64.1265 50.8496C63.8683 50.234 63.2826 49.9263 62.3691 49.9263C61.3366 49.9263 60.6813 50.2936 60.4033 51.0283C60.1253 51.763 59.9863 53.3516 59.9863 55.7939V78.1924C59.9863 80.5355 60.1253 82.0645 60.4033 82.7793C60.6813 83.4941 61.3068 83.8516 62.2798 83.8516C63.2131 83.8516 63.8187 83.4941 64.0967 82.7793C64.3945 82.0645 64.5435 80.3866 64.5435 77.7456V71.6992H77.083V73.5757C77.083 78.5597 76.7256 82.0942 76.0107 84.1792C75.3158 86.2642 73.757 88.091 71.3345 89.6597C68.9318 91.2284 65.9632 92.0127 62.4287 92.0127C58.7552 92.0127 55.7271 91.3475 53.3442 90.0171C50.9614 88.6867 49.3828 86.8499 48.6084 84.5068C47.834 82.1439 47.4468 78.5994 47.4468 73.8735V59.7852C47.4468 56.3102 47.5659 53.709 47.8042 51.9814C48.0425 50.234 48.7474 48.5562 49.9189 46.9478C51.1104 45.3394 52.7485 44.0785 54.8335 43.165C56.9383 42.2318 59.3509 41.7651 62.0713 41.7651C65.7646 41.7651 68.8127 42.48 71.2153 43.9097C73.618 45.3394 75.1966 47.1265 75.9512 49.271C76.7057 51.3957 77.083 54.7118 77.083 59.2192V63.8062ZM107.166 82.7793V91H80.687V84.1196C88.5304 71.2922 93.1868 63.3594 94.6562 60.3213C96.1455 57.2633 96.8901 54.8805 96.8901 53.1729C96.8901 51.8623 96.6618 50.8893 96.2051 50.2539C95.7682 49.5986 95.0931 49.271 94.1797 49.271C93.2663 49.271 92.5812 49.6284 92.1245 50.3433C91.6877 51.0581 91.4692 52.4779 91.4692 54.6025V59.1895H80.687V57.4321C80.687 54.7316 80.826 52.6069 81.104 51.0581C81.382 49.4894 82.0671 47.9505 83.1592 46.4414C84.2513 44.9323 85.6711 43.7905 87.4185 43.0161C89.1659 42.2417 91.2607 41.8545 93.7031 41.8545C98.4886 41.8545 102.103 43.0459 104.545 45.4287C107.007 47.7917 108.238 50.79 108.238 54.4238C108.238 57.1839 107.543 60.1029 106.153 63.1807C104.783 66.2585 100.722 72.7913 93.9712 82.7793H107.166Z" fill="#5271E5"/>
<path d="M131.201 57.0863L132.307 52.6602C132.449 52.0922 132.743 51.5732 133.157 51.1592C133.571 50.7452 134.09 50.4513 134.658 50.3093L139.084 49.2022C139.203 49.1722 139.203 49.0033 139.084 48.9733L134.658 47.8663C134.09 47.7243 133.571 47.4303 133.157 47.0163C132.743 46.6023 132.449 46.0833 132.307 45.5153L131.201 41.0892C131.171 40.9702 131.002 40.9702 130.972 41.0892L129.866 45.5153C129.724 46.0833 129.43 46.6023 129.016 47.0163C128.602 47.4303 128.083 47.7243 127.515 47.8663L123.089 48.9733C122.97 49.0033 122.97 49.1722 123.089 49.2022L127.515 50.3093C128.083 50.4513 128.602 50.7452 129.016 51.1592C129.43 51.5732 129.724 52.0922 129.866 52.6602L130.972 57.0863C131.002 57.2053 131.171 57.2053 131.201 57.0863Z" fill="white"/>
<path d="M108.201 99.0863L109.307 94.6602C109.449 94.0922 109.743 93.5732 110.157 93.1592C110.571 92.7452 111.09 92.4513 111.658 92.3093L116.084 91.2022C116.203 91.1722 116.203 91.0033 116.084 90.9733L111.658 89.8663C111.09 89.7243 110.571 89.4303 110.157 89.0163C109.743 88.6023 109.449 88.0833 109.307 87.5153L108.201 83.0892C108.171 82.9702 108.002 82.9702 107.972 83.0892L106.866 87.5153C106.724 88.0833 106.43 88.6023 106.016 89.0163C105.602 89.4303 105.083 89.7243 104.515 89.8663L100.089 90.9733C99.9702 91.0033 99.9702 91.1722 100.089 91.2022L104.515 92.3093C105.083 92.4513 105.602 92.7452 106.016 93.1592C106.43 93.5732 106.724 94.0922 106.866 94.6602L107.972 99.0863C108.002 99.2053 108.171 99.2053 108.201 99.0863Z" fill="white"/>
<path d="M11.2012 49.0863L12.3073 44.6602C12.4493 44.0922 12.7433 43.5732 13.1573 43.1592C13.5713 42.7452 14.0903 42.4513 14.6582 42.3093L19.0842 41.2022C19.2032 41.1722 19.2032 41.0033 19.0842 40.9733L14.6582 39.8663C14.0903 39.7243 13.5713 39.4303 13.1573 39.0163C12.7433 38.6023 12.4493 38.0833 12.3073 37.5153L11.2012 33.0892C11.1712 32.9702 11.0022 32.9702 10.9722 33.0892L9.86626 37.5153C9.72426 38.0833 9.43025 38.6023 9.01625 39.0163C8.60225 39.4303 8.08324 39.7243 7.51524 39.8663L3.08925 40.9733C2.97025 41.0033 2.97025 41.1722 3.08925 41.2022L7.51524 42.3093C8.08324 42.4513 8.60225 42.7452 9.01625 43.1592C9.43025 43.5732 9.72426 44.0922 9.86626 44.6602L10.9722 49.0863C11.0022 49.2053 11.1712 49.2053 11.2012 49.0863Z" fill="white"/>
<path d="M25.0708 99.9503L25.7546 97.4877C25.8424 97.1717 26.0242 96.8829 26.2802 96.6526C26.5362 96.4222 26.8571 96.2586 27.2082 96.1796L29.9448 95.5637C30.0184 95.547 30.0184 95.453 29.9448 95.4363L27.2082 94.8204C26.8571 94.7414 26.5362 94.5778 26.2802 94.3474C26.0242 94.1171 25.8424 93.8283 25.7546 93.5123L25.0708 91.0497C25.0522 90.9834 24.9478 90.9834 24.9292 91.0497L24.2454 93.5123C24.1576 93.8283 23.9758 94.1171 23.7198 94.3474C23.4638 94.5778 23.1429 94.7414 22.7918 94.8204L20.0552 95.4363C19.9816 95.453 19.9816 95.547 20.0552 95.5637L22.7918 96.1796C23.1429 96.2586 23.4638 96.4222 23.7198 96.6526C23.9758 96.8829 24.1576 97.1717 24.2454 97.4877L24.9292 99.9503C24.9478 100.017 25.0522 100.017 25.0708 99.9503Z" fill="white"/>
<path d="M69.9342 29.4443L71.4092 23.5433C71.5982 22.7863 71.9903 22.0943 72.5423 21.5423C73.0943 20.9903 73.7863 20.5983 74.5433 20.4093L80.4442 18.9342C80.6032 18.8942 80.6032 18.6682 80.4442 18.6292L74.5433 17.1543C73.7863 16.9653 73.0943 16.5733 72.5423 16.0213C71.9903 15.4693 71.5982 14.7773 71.4092 14.0203L69.9342 8.11925C69.8942 7.96025 69.6682 7.96025 69.6292 8.11925L68.1543 14.0203C67.9653 14.7773 67.5733 15.4693 67.0213 16.0213C66.4693 16.5733 65.7772 16.9653 65.0202 17.1543L59.1192 18.6292C58.9603 18.6692 58.9603 18.8952 59.1192 18.9342L65.0202 20.4093C65.7772 20.5983 66.4693 20.9903 67.0213 21.5423C67.5733 22.0943 67.9653 22.7863 68.1543 23.5433L69.6292 29.4443C69.6692 29.6033 69.8952 29.6033 69.9342 29.4443Z" fill="white"/>
<path d="M75.1115 124.611C82.2318 126.438 86.8432 123.359 88.5186 121.926C88.6079 121.849 88.6744 121.753 88.7116 121.645C88.7489 121.538 88.7557 121.424 88.7313 121.313C88.5551 120.51 88.216 119.992 87.9602 119.697C87.9317 119.664 87.9162 119.624 87.9162 119.582C87.9162 119.54 87.9317 119.499 87.9602 119.467C89.0117 118.273 88.9366 117.124 88.9366 117.124C88.9806 114.015 86.795 112.583 85.9901 112.163L86.9832 111.668C87.0142 111.653 87.0401 111.63 87.0583 111.602L88.0452 110.089C88.0518 110.079 88.0549 110.067 88.0543 110.056C88.0537 110.044 88.0493 110.033 88.0417 110.024C88.0341 110.014 88.0237 110.007 88.0118 110.004C87.9999 110 87.987 109.999 87.9749 110.003L79.2819 112.163L78.6133 112.33L78.1516 112.445C78.0326 112.474 77.9072 112.474 77.7882 112.445L77.3262 112.33L76.6575 112.163L67.9622 110.002C67.9502 109.999 67.9377 110 67.9262 110.004C67.9147 110.007 67.9047 110.014 67.8974 110.024C67.8901 110.033 67.8859 110.044 67.8853 110.055C67.8846 110.066 67.8876 110.078 67.8939 110.087L68.8647 111.576C68.8937 111.62 68.9351 111.657 68.9846 111.682L69.9497 112.163C69.1461 112.582 66.9578 114.015 67.0012 117.123C67.0012 117.123 66.926 118.278 67.9837 119.473C68.0108 119.503 68.0259 119.541 68.0262 119.581C68.0265 119.62 68.0121 119.659 67.9854 119.689C67.4451 120.307 66.5207 121.929 67.5657 125.148C68.9371 129.378 74.8055 134.151 77.7766 134.946C77.9329 134.987 78.0995 134.982 78.252 134.929C78.2836 134.918 78.3108 134.898 78.3301 134.872C78.3495 134.846 78.36 134.816 78.3605 134.784C78.361 134.753 78.3513 134.722 78.3328 134.695C78.3143 134.669 78.2877 134.649 78.2564 134.636C72.5543 132.49 72.276 128.771 72.276 128.771C73.5075 131.565 76.1377 133.117 78.7181 133.979C79.0429 134.087 79.3906 134.123 79.7332 134.084C80.0758 134.046 80.4038 133.933 80.6906 133.755C81.9269 132.988 83.2745 131.936 84.5042 130.737C84.5197 130.722 84.5298 130.703 84.5331 130.682C84.5363 130.661 84.5327 130.64 84.5226 130.622C84.5125 130.603 84.4964 130.588 84.4766 130.578C84.4567 130.568 84.4341 130.564 84.4117 130.566C78.6208 131.167 74.6163 127.454 74.6163 127.454C78.9073 129.981 82.7933 129.965 85.4689 129.409C85.7028 129.36 85.9107 129.237 86.0567 129.061C87.1095 127.793 87.953 126.444 88.3741 125.148C88.6183 124.395 88.7552 123.729 88.814 123.144C88.8159 123.125 88.8119 123.107 88.8025 123.091C88.793 123.075 88.7785 123.062 88.7609 123.053C88.7433 123.045 88.7234 123.042 88.7037 123.044C88.6841 123.046 88.6656 123.054 88.6507 123.066C82.349 128.113 75.2386 124.673 75.1115 124.611ZM83.7215 113.294C84.1699 113.32 84.9212 113.49 85.3668 114.28C86.0324 115.462 85.9768 116.13 85.1821 116.455C84.3874 116.781 83.9793 116.833 83.6091 116.833C83.6091 116.833 84.7562 115.137 82.4074 114.212L82.1017 114.103L83.7215 113.294ZM72.2238 113.296L73.336 113.852L73.8551 114.111L73.5788 114.211C71.23 115.137 72.3764 116.833 72.3764 116.833C72.0066 116.833 71.6002 116.782 70.8055 116.456C70.0108 116.131 69.9548 115.463 70.6208 114.281C71.0524 113.515 71.7702 113.332 72.2231 113.297L72.2238 113.296ZM72.4836 120.223C72.4836 120.223 69.1287 120.442 68.2114 117.71C67.4222 115.362 69.6437 112.96 70.2833 112.331L71.6613 113.018C71.2262 113.01 70.5163 113.121 69.9357 113.802C69.0293 114.864 68.8429 115.909 69.362 116.628C69.8811 117.347 71.3044 118.153 73.6157 117.861C75.6443 117.606 76.0493 116.23 75.8806 115.121L77.7701 116.063C77.8314 116.094 77.8998 116.11 77.9694 116.11C78.0389 116.11 78.1074 116.094 78.1686 116.063L80.1094 115.094C79.9305 116.206 80.3269 117.602 82.3702 117.859C84.6825 118.15 86.1065 117.345 86.6239 116.626C87.1413 115.906 86.9569 114.861 86.0509 113.8C85.4474 113.092 84.704 113 84.2751 113.017L85.6561 112.329C86.2954 112.958 88.5169 115.36 87.7276 117.708C86.8104 120.44 83.4555 120.221 83.4555 120.221C83.4555 120.221 80.8802 120.171 79.7474 119.05C79.0016 118.311 79.0081 118.718 78.101 119.608C78.0841 119.624 78.0638 119.637 78.0412 119.646C78.0186 119.655 77.9943 119.66 77.9697 119.66C77.9451 119.66 77.9208 119.655 77.8982 119.646C77.8757 119.637 77.8553 119.624 77.8384 119.608C76.9314 118.718 76.9382 118.311 76.192 119.05C75.0586 120.172 72.4833 120.221 72.4833 120.221L72.4836 120.223Z" fill="url(#paint11_linear_1279_1048)" stroke="#5075FF" stroke-width="0.363455" stroke-miterlimit="10"/>
<defs>
<linearGradient id="paint0_linear_1279_1048" x1="44.2611" y1="19.9189" x2="53.0448" y2="31.63" gradientUnits="userSpaceOnUse">
<stop stop-color="#96ECFD"/>
<stop offset="1" stop-color="#65B2D8"/>
</linearGradient>
<linearGradient id="paint1_linear_1279_1048" x1="110.608" y1="138.649" x2="104.114" y2="127.881" gradientUnits="userSpaceOnUse">
<stop stop-color="#98EEFE"/>
<stop offset="1" stop-color="#77C7E5"/>
</linearGradient>
<linearGradient id="paint2_linear_1279_1048" x1="43.0167" y1="141.575" x2="57.7902" y2="120.957" gradientUnits="userSpaceOnUse">
<stop stop-color="#5387F2"/>
<stop offset="1" stop-color="#5994F7"/>
</linearGradient>
<linearGradient id="paint3_linear_1279_1048" x1="112.327" y1="19.3712" x2="101.227" y2="32.1644" gradientUnits="userSpaceOnUse">
<stop stop-color="#4F7EEF"/>
<stop offset="1" stop-color="#5892F6"/>
</linearGradient>
<linearGradient id="paint4_linear_1279_1048" x1="10.6637" y1="80" x2="27.5541" y2="80" gradientUnits="userSpaceOnUse">
<stop stop-color="#376CD2"/>
<stop offset="1" stop-color="#4784DC"/>
</linearGradient>
<linearGradient id="paint5_linear_1279_1048" x1="145.337" y1="80" x2="128.703" y2="80" gradientUnits="userSpaceOnUse">
<stop stop-color="#3970D3"/>
<stop offset="1" stop-color="#4682DB"/>
</linearGradient>
<linearGradient id="paint6_linear_1279_1048" x1="77.9999" y1="142.748" x2="77.9999" y2="17.2522" gradientUnits="userSpaceOnUse">
<stop stop-color="#B0DDF3"/>
<stop offset="1" stop-color="#98CDEB"/>
</linearGradient>
<linearGradient id="paint7_linear_1279_1048" x1="0" y1="113.408" x2="50.5143" y2="113.408" gradientUnits="userSpaceOnUse">
<stop stop-color="#451356"/>
<stop offset="1" stop-color="#982CBE"/>
</linearGradient>
<linearGradient id="paint8_linear_1279_1048" x1="105.486" y1="114.785" x2="156" y2="114.785" gradientUnits="userSpaceOnUse">
<stop/>
<stop offset="1" stop-color="#A930D3"/>
</linearGradient>
<linearGradient id="paint9_linear_1279_1048" x1="77.9997" y1="136.802" x2="77.9997" y2="106.528" gradientUnits="userSpaceOnUse">
<stop stop-color="#86009B"/>
<stop offset="1" stop-color="#CB6EF7"/>
</linearGradient>
<linearGradient id="paint10_linear_1279_1048" x1="78" y1="139.512" x2="78" y2="103.816" gradientUnits="userSpaceOnUse">
<stop stop-color="#B3DEF4"/>
<stop offset="1" stop-color="#89C3E7"/>
</linearGradient>
<linearGradient id="paint11_linear_1279_1048" x1="77.9689" y1="110" x2="77.9689" y2="134.973" gradientUnits="userSpaceOnUse">
<stop stop-color="#57E0EA"/>
<stop offset="1" stop-color="#5483F7"/>
</linearGradient>
</defs>
</svg>
